<svg width="24" height="24" viewBox="0 0 24 24" fill="none" xmlns="http://www.w3.org/2000/svg">
<path opacity="0.4" d="M12 1.5C8.69531 1.5 6 4.19531 6 7.5V9H5.25C4.01367 9 3 10.0137 3 11.25V18.75C3 19.9863 4.01367 21 5.25 21H18.75C19.9863 21 21 19.9863 21 18.75V11.25C21 10.0137 19.9863 9 18.75 9H18V7.5C18 4.19531 15.3047 1.5 12 1.5ZM12 3C14.4961 3 16.5 5.00391 16.5 7.5V9H7.5V7.5C7.5 5.00391 9.50391 3 12 3ZM5.25 10.5H18.75C19.1719 10.5 19.5 10.8281 19.5 11.25V18.75C19.5 19.1719 19.1719 19.5 18.75 19.5H5.25C4.82812 19.5 4.5 19.1719 4.5 18.75V11.25C4.5 10.8281 4.82812 10.5 5.25 10.5Z" fill="#181C2A"/>
</svg>
