<svg width="194" height="38" viewBox="0 0 194 38" fill="none" xmlns="http://www.w3.org/2000/svg">
<path fill-rule="evenodd" clip-rule="evenodd" d="M17.1148 37.0002H0V18.5889C0 8.42055 7.66592 0.174316 17.1148 0.174316H34.2297V18.5889C34.2297 28.7572 26.5638 37.0002 17.1148 37.0002Z" fill="#1EAE5A"/>
<path fill-rule="evenodd" clip-rule="evenodd" d="M49.9957 37.0002H32.8809V18.5889C32.8809 8.42055 40.5435 0.174316 49.9957 0.174316H67.1105V18.5889C67.1105 28.7572 59.4446 37.0002 49.9957 37.0002Z" fill="#FD7F23"/>
<path fill-rule="evenodd" clip-rule="evenodd" d="M82.8883 36.8259H65.7734V18.4113C65.7734 8.24623 73.4361 0 82.8883 0H99.9902V18.4113C99.9902 28.5796 92.3275 36.8259 82.8786 36.8259" fill="#1EAE5A"/>
<path d="M17.5163 28.5341C16.2381 28.5343 14.9747 28.2616 13.8112 27.7343C12.6463 27.2162 11.5968 26.4717 10.7241 25.5446C9.82562 24.595 9.10845 23.4901 8.6078 22.2841C7.55521 19.6879 7.55521 16.7857 8.6078 14.1895C9.10453 12.9727 9.82194 11.8576 10.7241 10.9C11.5965 9.97166 12.646 9.22612 13.8112 8.70703C14.9757 8.18417 16.2391 7.91586 17.5163 7.92014C18.5881 7.91266 19.6521 8.10178 20.6552 8.47805C21.5963 8.8283 22.4715 9.33419 23.2439 9.97444C23.9812 10.597 24.6205 11.3265 25.1402 12.1384C25.6463 12.9256 26.0272 13.7861 26.2695 14.6893H23.0336C22.855 14.1549 22.6104 13.6447 22.3055 13.1704C21.9929 12.677 21.5978 12.2407 21.1373 11.8804C20.6531 11.5077 20.1153 11.2098 19.542 10.9967C18.8197 10.7389 18.0533 10.6258 17.2869 10.664C16.5206 10.7022 15.7694 10.8909 15.0764 11.2193C14.2674 11.5912 13.5421 12.1221 12.944 12.7802C12.3083 13.4876 11.8023 14.3008 11.449 15.1828C10.6939 17.1337 10.6939 19.2948 11.449 21.2457C11.8031 22.1262 12.309 22.9383 12.944 23.6451C13.5375 24.307 14.2568 24.8452 15.0603 25.2285C15.8254 25.6005 16.665 25.7956 17.5163 25.7993C18.2766 25.8063 19.0311 25.6683 19.7394 25.393C20.3958 25.1397 21.0034 24.7753 21.5353 24.3158C22.0494 23.865 22.4818 23.3294 22.8135 22.7324C23.15 22.1296 23.3851 21.476 23.5093 20.7974H17.361V17.8949H26.4216V28.3793H24.1565L23.3507 26.4443C22.8944 26.8722 22.379 27.2328 21.8201 27.515C21.2371 27.8119 20.6257 28.0495 19.995 28.2245C19.1876 28.4439 18.3531 28.5481 17.5163 28.5341Z" fill="white"/>
<path d="M43.1119 13.5449C43.112 12.8116 43.2767 12.0877 43.594 11.4261C43.9263 10.7349 44.4003 10.1207 44.9855 9.62336C45.623 9.08441 46.3532 8.66486 47.1406 8.38497C48.0274 8.06592 48.9646 7.90861 49.9073 7.92058C50.8188 7.90431 51.725 8.06194 52.577 8.38497C53.364 8.68539 54.0818 9.14179 54.6868 9.72656C55.2753 10.2942 55.7431 10.9742 56.0621 11.726C56.3896 12.506 56.5537 13.3444 56.5442 14.1899H53.4604C53.4845 13.7177 53.409 13.2457 53.2387 12.8044C53.0683 12.3631 52.807 11.9623 52.4715 11.628C52.136 11.2936 51.7339 11.0332 51.2911 10.8634C50.8483 10.6936 50.3747 10.6184 49.9009 10.6424C49.3799 10.6369 48.8615 10.7175 48.367 10.8811C47.9341 11.0177 47.5319 11.2368 47.1827 11.5261C46.8749 11.7872 46.62 12.1047 46.4319 12.4613C46.2604 12.7901 46.1705 13.155 46.1698 13.5256C46.1547 13.8461 46.2216 14.1652 46.3643 14.453C46.5069 14.7407 46.7206 14.9875 46.9853 15.1703C47.6044 15.5929 48.2796 15.9272 48.9916 16.1636C49.7876 16.4409 50.6548 16.715 51.5997 16.9892C52.51 17.2495 53.3848 17.6199 54.2047 18.0921C54.9964 18.5494 55.6815 19.1694 56.2142 19.911C56.7923 20.7898 57.0766 21.8283 57.0264 22.878C57.0266 23.6118 56.8537 24.3354 56.5216 24.9903C56.169 25.6795 55.6829 26.2922 55.0913 26.7931C54.4305 27.3466 53.6723 27.773 52.8553 28.0508C51.9043 28.3727 50.9051 28.5298 49.9009 28.5152C48.9103 28.5309 47.9247 28.3737 46.9885 28.0508C46.1798 27.7695 45.4352 27.331 44.7978 26.7608C44.1942 26.2124 43.7239 25.5341 43.4225 24.7775C43.106 23.9733 42.9467 23.1161 42.9533 22.2523H46.021C46.021 23.3961 46.3446 24.2733 46.9918 24.8839C47.639 25.4902 48.6097 25.7965 49.9041 25.7965C51.2826 25.7965 52.3019 25.5181 52.9621 24.9613C53.27 24.7129 53.5174 24.3981 53.6856 24.0405C53.8537 23.683 53.9383 23.2921 53.9328 22.8973C53.9482 22.5588 53.8833 22.2215 53.7432 21.9128C53.6032 21.604 53.3921 21.3325 53.1271 21.1203C52.5224 20.6528 51.8446 20.2878 51.1208 20.04C50.3183 19.753 49.4511 19.4692 48.5127 19.1886C47.6067 18.9248 46.7322 18.5636 45.9045 18.1115C45.1209 17.6841 44.4371 17.0961 43.8982 16.3861C43.3805 15.6766 43.1119 14.7317 43.1119 13.5449Z" fill="white"/>
<path d="M82.1513 20.3174H78.5918V28.3798H75.5273V8.0625H83.6172C85.245 8.06165 86.8066 8.70415 87.9598 9.84913C88.5165 10.4117 88.9622 11.0736 89.2736 11.8002C89.6002 12.5535 89.7666 13.3661 89.7622 14.1867C89.8105 15.2023 89.5633 16.2103 89.0503 17.0892C88.638 17.7628 88.1088 18.3579 87.4873 18.8468C86.8081 19.3666 86.041 19.7609 85.2222 20.011L90.2282 28.3959H86.8466L82.1513 20.3174ZM78.5918 17.4149H83.6172C84.0202 17.419 84.4188 17.3307 84.7821 17.1569C85.1456 16.9884 85.4747 16.7544 85.7529 16.4668C86.0381 16.171 86.2682 15.827 86.4324 15.4509C86.6054 15.0528 86.6946 14.6237 86.6946 14.1899C86.6946 13.7562 86.6054 13.327 86.4324 12.929C86.2673 12.5591 86.0371 12.2216 85.7529 11.9325C85.4757 11.6428 85.1464 11.4076 84.7821 11.2391C84.421 11.0651 84.0247 10.9758 83.6237 10.9779H78.5982L78.5918 17.4149Z" fill="white"/>
<path d="M120.2 11.1266C120.92 11.1266 121.592 11.2626 122.216 11.5346C122.84 11.7906 123.384 12.1506 123.848 12.6146C124.328 13.0626 124.696 13.5986 124.952 14.2226C125.224 14.8306 125.36 15.4786 125.36 16.1666C125.36 16.8546 125.224 17.5106 124.952 18.1346C124.696 18.7426 124.328 19.2786 123.848 19.7426C123.384 20.1906 122.84 20.5506 122.216 20.8226C121.592 21.0786 120.92 21.2066 120.2 21.2066H117.44V26.2466H114.56V11.1266H120.2ZM120.2 18.4466C120.504 18.4466 120.792 18.3826 121.064 18.2546C121.336 18.1266 121.576 17.9586 121.784 17.7506C121.992 17.5426 122.16 17.3026 122.288 17.0306C122.416 16.7586 122.48 16.4706 122.48 16.1666C122.48 15.8626 122.416 15.5746 122.288 15.3026C122.16 15.0306 121.992 14.7906 121.784 14.5826C121.576 14.3746 121.336 14.2066 121.064 14.0786C120.792 13.9506 120.504 13.8866 120.2 13.8866H117.44V18.4466H120.2ZM128.232 26.2466H125.232L130.872 11.1266H133.512L139.152 26.2466H136.152L135.072 23.1266H129.312L128.232 26.2466ZM134.112 20.4866L132.192 14.9666L130.272 20.4866H134.112ZM146.959 16.8866C147.679 16.8866 148.335 17.0066 148.927 17.2466C149.535 17.4866 150.055 17.8226 150.487 18.2546C150.935 18.6706 151.279 19.1666 151.519 19.7426C151.759 20.3026 151.879 20.9106 151.879 21.5666C151.879 22.2226 151.759 22.8386 151.519 23.4146C151.279 23.9906 150.935 24.4866 150.487 24.9026C150.055 25.3186 149.535 25.6466 148.927 25.8866C148.335 26.1266 147.679 26.2466 146.959 26.2466H140.599V11.1266H150.799V13.8866H143.479V16.8866H146.959ZM143.479 19.5266V23.6066H146.959C147.567 23.6066 148.055 23.4226 148.423 23.0546C148.807 22.6706 148.999 22.1746 148.999 21.5666C148.999 20.9586 148.807 20.4706 148.423 20.1026C148.055 19.7186 147.567 19.5266 146.959 19.5266H143.479ZM156.209 18.6866C156.209 19.4066 156.329 20.0706 156.569 20.6786C156.809 21.2706 157.129 21.7906 157.529 22.2386C157.929 22.6706 158.393 23.0066 158.921 23.2466C159.465 23.4866 160.041 23.6066 160.649 23.6066C161.241 23.6066 161.809 23.4866 162.353 23.2466C162.897 23.0066 163.369 22.6706 163.769 22.2386C164.169 21.7906 164.489 21.2706 164.729 20.6786C164.969 20.0706 165.089 19.4066 165.089 18.6866C165.089 17.9666 164.969 17.3106 164.729 16.7186C164.489 16.1106 164.169 15.5906 163.769 15.1586C163.369 14.7106 162.897 14.3666 162.353 14.1266C161.809 13.8866 161.241 13.7666 160.649 13.7666C160.041 13.7666 159.465 13.8866 158.921 14.1266C158.393 14.3666 157.929 14.7106 157.529 15.1586C157.129 15.5906 156.809 16.1106 156.569 16.7186C156.329 17.3106 156.209 17.9666 156.209 18.6866ZM167.969 18.6866C167.969 19.7746 167.769 20.7826 167.369 21.7106C166.985 22.6386 166.457 23.4546 165.785 24.1586C165.129 24.8466 164.353 25.3906 163.457 25.7906C162.577 26.1746 161.641 26.3666 160.649 26.3666C159.657 26.3666 158.713 26.1746 157.817 25.7906C156.937 25.3906 156.161 24.8466 155.489 24.1586C154.833 23.4546 154.305 22.6386 153.905 21.7106C153.521 20.7826 153.329 19.7746 153.329 18.6866C153.329 17.6146 153.521 16.6146 153.905 15.6866C154.305 14.7426 154.833 13.9266 155.489 13.2386C156.161 12.5346 156.937 11.9906 157.817 11.6066C158.713 11.2066 159.657 11.0066 160.649 11.0066C161.641 11.0066 162.577 11.2066 163.457 11.6066C164.353 11.9906 165.129 12.5346 165.785 13.2386C166.457 13.9266 166.985 14.7426 167.369 15.6866C167.769 16.6146 167.969 17.6146 167.969 18.6866ZM168.579 11.1266H180.339V13.8866H175.899V26.2466H173.019V13.8866H168.579V11.1266ZM182.607 26.2466H179.607L185.247 11.1266H187.887L193.527 26.2466H190.527L189.447 23.1266H183.687L182.607 26.2466ZM188.487 20.4866L186.567 14.9666L184.647 20.4866H188.487Z" fill="#1EAE5A"/>
</svg>
